<mxfile host="app.diagrams.net" agent="Mozilla/5.0 (Windows NT 10.0; Win64; x64) AppleWebKit/537.36 (KHTML, like Gecko) Chrome/130.0.0.0 Safari/537.36" version="24.8.1">
  <diagram name="Page-1" id="IHv-98eqLwMEWZHqAXbI">
    <mxGraphModel dx="808" dy="402" grid="1" gridSize="10" guides="1" tooltips="1" connect="1" arrows="1" fold="1" page="1" pageScale="1" pageWidth="850" pageHeight="1100" math="0" shadow="0">
      <root>
        <mxCell id="0" />
        <mxCell id="1" parent="0" />
        <mxCell id="L3Kivdhp5sDXabprpD6I-1" value="VPC" style="sketch=0;outlineConnect=0;gradientColor=none;html=1;whiteSpace=wrap;fontSize=12;fontStyle=1;shape=mxgraph.aws4.group;grIcon=mxgraph.aws4.group_vpc;strokeColor=#4D4D4D;fillColor=none;verticalAlign=top;align=left;spacingLeft=30;fontColor=#879196;dashed=0;strokeWidth=3;" parent="1" vertex="1">
          <mxGeometry x="90" y="310" width="960" height="440" as="geometry" />
        </mxCell>
        <mxCell id="L3Kivdhp5sDXabprpD6I-2" value="&lt;span&gt;London&lt;/span&gt;" style="text;html=1;align=center;verticalAlign=middle;whiteSpace=wrap;rounded=0;fontStyle=1" parent="1" vertex="1">
          <mxGeometry x="120" y="280" width="60" height="30" as="geometry" />
        </mxCell>
        <mxCell id="L3Kivdhp5sDXabprpD6I-3" value="" style="rounded=1;whiteSpace=wrap;html=1;fontStyle=1" parent="1" vertex="1">
          <mxGeometry x="160" y="360" width="250" height="330" as="geometry" />
        </mxCell>
        <mxCell id="L3Kivdhp5sDXabprpD6I-4" value="" style="rounded=1;whiteSpace=wrap;html=1;fontStyle=1" parent="1" vertex="1">
          <mxGeometry x="710" y="360" width="250" height="330" as="geometry" />
        </mxCell>
        <mxCell id="L3Kivdhp5sDXabprpD6I-5" value="&lt;span&gt;AZ-1 = Hatfield&lt;/span&gt;" style="text;html=1;align=center;verticalAlign=middle;whiteSpace=wrap;rounded=0;fontStyle=1" parent="1" vertex="1">
          <mxGeometry x="184.5" y="330" width="110" height="30" as="geometry" />
        </mxCell>
        <mxCell id="L3Kivdhp5sDXabprpD6I-6" value="&lt;span&gt;AZ-2 = Queensville&lt;/span&gt;" style="text;html=1;align=center;verticalAlign=middle;whiteSpace=wrap;rounded=0;fontStyle=1" parent="1" vertex="1">
          <mxGeometry x="750" y="330" width="110" height="30" as="geometry" />
        </mxCell>
        <mxCell id="L3Kivdhp5sDXabprpD6I-25" style="edgeStyle=orthogonalEdgeStyle;rounded=0;orthogonalLoop=1;jettySize=auto;html=1;strokeWidth=2;fontStyle=1" parent="1" source="L3Kivdhp5sDXabprpD6I-7" target="L3Kivdhp5sDXabprpD6I-23" edge="1">
          <mxGeometry relative="1" as="geometry" />
        </mxCell>
        <mxCell id="L3Kivdhp5sDXabprpD6I-34" style="edgeStyle=orthogonalEdgeStyle;rounded=0;orthogonalLoop=1;jettySize=auto;html=1;fontStyle=1" parent="1" source="L3Kivdhp5sDXabprpD6I-7" target="L3Kivdhp5sDXabprpD6I-23" edge="1">
          <mxGeometry relative="1" as="geometry" />
        </mxCell>
        <mxCell id="L3Kivdhp5sDXabprpD6I-7" value="" style="rounded=1;whiteSpace=wrap;html=1;strokeColor=#006600;strokeWidth=3;fontStyle=1" parent="1" vertex="1">
          <mxGeometry x="200" y="400" width="140" height="70" as="geometry" />
        </mxCell>
        <mxCell id="5o6ZdLPysze8xNBXoWIT-5" style="edgeStyle=orthogonalEdgeStyle;rounded=0;orthogonalLoop=1;jettySize=auto;html=1;strokeWidth=2;fontStyle=1" parent="1" source="L3Kivdhp5sDXabprpD6I-8" target="5o6ZdLPysze8xNBXoWIT-3" edge="1">
          <mxGeometry relative="1" as="geometry" />
        </mxCell>
        <mxCell id="L3Kivdhp5sDXabprpD6I-8" value="" style="rounded=1;whiteSpace=wrap;html=1;strokeColor=#663300;strokeWidth=4;fontStyle=1" parent="1" vertex="1">
          <mxGeometry x="200" y="500" width="140" height="70" as="geometry" />
        </mxCell>
        <mxCell id="L3Kivdhp5sDXabprpD6I-27" style="edgeStyle=orthogonalEdgeStyle;rounded=0;orthogonalLoop=1;jettySize=auto;html=1;strokeWidth=2;fontStyle=1" parent="1" source="L3Kivdhp5sDXabprpD6I-12" target="L3Kivdhp5sDXabprpD6I-23" edge="1">
          <mxGeometry relative="1" as="geometry">
            <Array as="points">
              <mxPoint x="480" y="640" />
              <mxPoint x="480" y="436" />
            </Array>
          </mxGeometry>
        </mxCell>
        <mxCell id="L3Kivdhp5sDXabprpD6I-12" value="" style="rounded=1;whiteSpace=wrap;html=1;strokeColor=#006600;strokeWidth=3;fontStyle=1" parent="1" vertex="1">
          <mxGeometry x="220" y="610" width="120" height="60" as="geometry" />
        </mxCell>
        <mxCell id="L3Kivdhp5sDXabprpD6I-13" value="" style="rounded=1;whiteSpace=wrap;html=1;strokeColor=#006600;strokeWidth=3;fontStyle=1" parent="1" vertex="1">
          <mxGeometry x="775" y="405.5" width="120" height="60" as="geometry" />
        </mxCell>
        <mxCell id="L3Kivdhp5sDXabprpD6I-15" value="XYZ.com" style="rounded=0;whiteSpace=wrap;html=1;strokeColor=#000099;strokeWidth=3;fontStyle=1" parent="1" vertex="1">
          <mxGeometry x="230" y="415" width="80" height="40" as="geometry" />
        </mxCell>
        <mxCell id="L3Kivdhp5sDXabprpD6I-19" style="edgeStyle=orthogonalEdgeStyle;rounded=0;orthogonalLoop=1;jettySize=auto;html=1;strokeWidth=2;flowAnimation=1;fontStyle=1" parent="1" source="L3Kivdhp5sDXabprpD6I-16" target="L3Kivdhp5sDXabprpD6I-18" edge="1">
          <mxGeometry relative="1" as="geometry" />
        </mxCell>
        <mxCell id="L3Kivdhp5sDXabprpD6I-16" value="Actor" style="shape=umlActor;verticalLabelPosition=bottom;verticalAlign=top;html=1;outlineConnect=0;fontStyle=1" parent="1" vertex="1">
          <mxGeometry x="950" y="220" width="30" height="60" as="geometry" />
        </mxCell>
        <mxCell id="L3Kivdhp5sDXabprpD6I-17" value="&lt;span&gt;USER&lt;/span&gt;" style="text;html=1;align=center;verticalAlign=middle;whiteSpace=wrap;rounded=0;fontStyle=1" parent="1" vertex="1">
          <mxGeometry x="890" y="210" width="60" height="30" as="geometry" />
        </mxCell>
        <mxCell id="L3Kivdhp5sDXabprpD6I-30" style="edgeStyle=orthogonalEdgeStyle;rounded=0;orthogonalLoop=1;jettySize=auto;html=1;strokeWidth=2;flowAnimation=1;fontStyle=1" parent="1" source="L3Kivdhp5sDXabprpD6I-18" target="L3Kivdhp5sDXabprpD6I-23" edge="1">
          <mxGeometry relative="1" as="geometry">
            <Array as="points">
              <mxPoint x="570" y="330" />
            </Array>
          </mxGeometry>
        </mxCell>
        <mxCell id="5o6ZdLPysze8xNBXoWIT-10" style="edgeStyle=orthogonalEdgeStyle;rounded=0;orthogonalLoop=1;jettySize=auto;html=1;strokeWidth=2;flowAnimation=1;fontStyle=1" parent="1" source="L3Kivdhp5sDXabprpD6I-18" target="5o6ZdLPysze8xNBXoWIT-3" edge="1">
          <mxGeometry relative="1" as="geometry">
            <Array as="points">
              <mxPoint x="1020" y="710" />
              <mxPoint x="578" y="710" />
            </Array>
          </mxGeometry>
        </mxCell>
        <mxCell id="L3Kivdhp5sDXabprpD6I-18" value="" style="outlineConnect=0;dashed=0;verticalLabelPosition=bottom;verticalAlign=top;align=center;html=1;shape=mxgraph.aws3.internet_gateway;fillColor=#F58534;gradientColor=none;fontStyle=1" parent="1" vertex="1">
          <mxGeometry x="1020" y="290" width="49" height="52" as="geometry" />
        </mxCell>
        <mxCell id="L3Kivdhp5sDXabprpD6I-21" value="&lt;span&gt;XYZ.com ---&amp;gt; IP:PORT&lt;/span&gt;" style="text;html=1;align=center;verticalAlign=middle;whiteSpace=wrap;rounded=0;fontStyle=1" parent="1" vertex="1">
          <mxGeometry x="775" y="260" width="180" height="30" as="geometry" />
        </mxCell>
        <mxCell id="L3Kivdhp5sDXabprpD6I-22" value="&lt;span&gt;Internet Gateway&lt;/span&gt;" style="text;html=1;align=center;verticalAlign=middle;whiteSpace=wrap;rounded=0;fontStyle=1" parent="1" vertex="1">
          <mxGeometry x="1060" y="330" width="60" height="30" as="geometry" />
        </mxCell>
        <mxCell id="L3Kivdhp5sDXabprpD6I-32" style="edgeStyle=orthogonalEdgeStyle;rounded=0;orthogonalLoop=1;jettySize=auto;html=1;entryX=1;entryY=0.25;entryDx=0;entryDy=0;strokeWidth=2;flowAnimation=1;fontStyle=1" parent="1" source="L3Kivdhp5sDXabprpD6I-23" target="L3Kivdhp5sDXabprpD6I-15" edge="1">
          <mxGeometry relative="1" as="geometry">
            <Array as="points">
              <mxPoint x="480" y="425" />
              <mxPoint x="480" y="425" />
            </Array>
          </mxGeometry>
        </mxCell>
        <mxCell id="L3Kivdhp5sDXabprpD6I-23" value="" style="outlineConnect=0;dashed=0;verticalLabelPosition=bottom;verticalAlign=top;align=center;html=1;shape=mxgraph.aws3.route_table;fillColor=#F58536;gradientColor=none;fontStyle=1" parent="1" vertex="1">
          <mxGeometry x="532.5" y="401" width="75" height="69" as="geometry" />
        </mxCell>
        <mxCell id="L3Kivdhp5sDXabprpD6I-24" value="&lt;span&gt;Public Route table&lt;/span&gt;" style="text;html=1;align=center;verticalAlign=middle;whiteSpace=wrap;rounded=0;fontStyle=1" parent="1" vertex="1">
          <mxGeometry x="527.5" y="490" width="80" height="30" as="geometry" />
        </mxCell>
        <mxCell id="L3Kivdhp5sDXabprpD6I-26" style="edgeStyle=orthogonalEdgeStyle;rounded=0;orthogonalLoop=1;jettySize=auto;html=1;entryX=1;entryY=0.5;entryDx=0;entryDy=0;entryPerimeter=0;strokeWidth=2;fontStyle=1" parent="1" source="L3Kivdhp5sDXabprpD6I-13" target="L3Kivdhp5sDXabprpD6I-23" edge="1">
          <mxGeometry relative="1" as="geometry" />
        </mxCell>
        <mxCell id="L3Kivdhp5sDXabprpD6I-37" value="&lt;span&gt;Public Subnet&lt;/span&gt;" style="text;html=1;align=center;verticalAlign=middle;whiteSpace=wrap;rounded=0;fontStyle=1" parent="1" vertex="1">
          <mxGeometry x="225" y="370" width="90" height="30" as="geometry" />
        </mxCell>
        <mxCell id="L3Kivdhp5sDXabprpD6I-38" value="&lt;span&gt;Public Subnet&lt;/span&gt;" style="text;html=1;align=center;verticalAlign=middle;whiteSpace=wrap;rounded=0;fontStyle=1" parent="1" vertex="1">
          <mxGeometry x="790" y="375.5" width="90" height="30" as="geometry" />
        </mxCell>
        <mxCell id="L3Kivdhp5sDXabprpD6I-41" value="&lt;span&gt;Private Subnet&lt;/span&gt;" style="text;html=1;align=center;verticalAlign=middle;whiteSpace=wrap;rounded=0;fontStyle=1" parent="1" vertex="1">
          <mxGeometry x="220" y="570" width="90" height="30" as="geometry" />
        </mxCell>
        <mxCell id="5o6ZdLPysze8xNBXoWIT-1" value="&lt;span&gt;Databases/Internal applications&lt;/span&gt;" style="rounded=0;whiteSpace=wrap;html=1;strokeColor=#000099;strokeWidth=3;fontStyle=1" parent="1" vertex="1">
          <mxGeometry x="212.5" y="512.5" width="115" height="45" as="geometry" />
        </mxCell>
        <mxCell id="5o6ZdLPysze8xNBXoWIT-12" style="edgeStyle=orthogonalEdgeStyle;rounded=0;orthogonalLoop=1;jettySize=auto;html=1;strokeWidth=2;flowAnimation=1;fontStyle=1" parent="1" source="5o6ZdLPysze8xNBXoWIT-2" target="5o6ZdLPysze8xNBXoWIT-7" edge="1">
          <mxGeometry relative="1" as="geometry">
            <Array as="points">
              <mxPoint x="40" y="481" />
              <mxPoint x="40" y="800" />
              <mxPoint x="1115" y="800" />
            </Array>
          </mxGeometry>
        </mxCell>
        <mxCell id="5o6ZdLPysze8xNBXoWIT-2" value="" style="outlineConnect=0;dashed=0;verticalLabelPosition=bottom;verticalAlign=top;align=center;html=1;shape=mxgraph.aws3.vpc_nat_gateway;fillColor=#F58534;gradientColor=none;fontStyle=1" parent="1" vertex="1">
          <mxGeometry x="245.5" y="455" width="49" height="52" as="geometry" />
        </mxCell>
        <mxCell id="5o6ZdLPysze8xNBXoWIT-11" style="edgeStyle=orthogonalEdgeStyle;rounded=0;orthogonalLoop=1;jettySize=auto;html=1;entryX=1;entryY=0.75;entryDx=0;entryDy=0;strokeWidth=2;flowAnimation=1;fontStyle=1" parent="1" source="5o6ZdLPysze8xNBXoWIT-3" target="L3Kivdhp5sDXabprpD6I-8" edge="1">
          <mxGeometry relative="1" as="geometry">
            <Array as="points">
              <mxPoint x="430" y="610" />
              <mxPoint x="430" y="553" />
            </Array>
          </mxGeometry>
        </mxCell>
        <mxCell id="5o6ZdLPysze8xNBXoWIT-3" value="" style="outlineConnect=0;dashed=0;verticalLabelPosition=bottom;verticalAlign=top;align=center;html=1;shape=mxgraph.aws3.route_table;fillColor=#F58536;gradientColor=none;fontStyle=1" parent="1" vertex="1">
          <mxGeometry x="540" y="550" width="75" height="69" as="geometry" />
        </mxCell>
        <mxCell id="5o6ZdLPysze8xNBXoWIT-4" value="&lt;span&gt;Private Route table&lt;/span&gt;" style="text;html=1;align=center;verticalAlign=middle;whiteSpace=wrap;rounded=0;fontStyle=1" parent="1" vertex="1">
          <mxGeometry x="590" y="630" width="80" height="30" as="geometry" />
        </mxCell>
        <mxCell id="5o6ZdLPysze8xNBXoWIT-9" style="edgeStyle=orthogonalEdgeStyle;rounded=0;orthogonalLoop=1;jettySize=auto;html=1;strokeWidth=2;flowAnimation=1;fontStyle=1" parent="1" source="5o6ZdLPysze8xNBXoWIT-7" target="L3Kivdhp5sDXabprpD6I-18" edge="1">
          <mxGeometry relative="1" as="geometry">
            <Array as="points">
              <mxPoint x="1160" y="425" />
              <mxPoint x="1160" y="316" />
            </Array>
          </mxGeometry>
        </mxCell>
        <mxCell id="5o6ZdLPysze8xNBXoWIT-7" value="Actor" style="shape=umlActor;verticalLabelPosition=bottom;verticalAlign=top;html=1;outlineConnect=0;fontStyle=1" parent="1" vertex="1">
          <mxGeometry x="1100" y="395" width="30" height="60" as="geometry" />
        </mxCell>
        <mxCell id="5o6ZdLPysze8xNBXoWIT-8" value="&lt;span&gt;Employee&lt;/span&gt;" style="text;html=1;align=center;verticalAlign=middle;whiteSpace=wrap;rounded=0;fontStyle=1" parent="1" vertex="1">
          <mxGeometry x="1130" y="477" width="60" height="30" as="geometry" />
        </mxCell>
        <mxCell id="5o6ZdLPysze8xNBXoWIT-13" value="&lt;span&gt;NAT Gateway&lt;/span&gt;" style="text;html=1;align=center;verticalAlign=middle;whiteSpace=wrap;rounded=0;fontStyle=1" parent="1" vertex="1">
          <mxGeometry x="294.5" y="470" width="105.5" height="30" as="geometry" />
        </mxCell>
        <mxCell id="5o6ZdLPysze8xNBXoWIT-14" value="" style="shape=image;html=1;verticalAlign=top;verticalLabelPosition=bottom;labelBackgroundColor=#ffffff;imageAspect=0;aspect=fixed;image=https://cdn0.iconfinder.com/data/icons/kameleon-free-pack/110/Hacker-128.png;fontStyle=1" parent="1" vertex="1">
          <mxGeometry x="1080" y="203" width="87" height="87" as="geometry" />
        </mxCell>
        <mxCell id="5o6ZdLPysze8xNBXoWIT-18" style="edgeStyle=orthogonalEdgeStyle;rounded=0;orthogonalLoop=1;jettySize=auto;html=1;strokeWidth=2;fontStyle=1" parent="1" source="5o6ZdLPysze8xNBXoWIT-17" target="5o6ZdLPysze8xNBXoWIT-3" edge="1">
          <mxGeometry relative="1" as="geometry" />
        </mxCell>
        <mxCell id="5o6ZdLPysze8xNBXoWIT-17" value="" style="rounded=1;whiteSpace=wrap;html=1;strokeColor=#663300;strokeWidth=4;fontStyle=1" parent="1" vertex="1">
          <mxGeometry x="765" y="549" width="140" height="70" as="geometry" />
        </mxCell>
        <mxCell id="5o6ZdLPysze8xNBXoWIT-19" value="&lt;span&gt;abc.com&lt;/span&gt;" style="rounded=0;whiteSpace=wrap;html=1;strokeColor=#000099;strokeWidth=3;fontStyle=1" parent="1" vertex="1">
          <mxGeometry x="795" y="415.5" width="80" height="40" as="geometry" />
        </mxCell>
        <mxCell id="5o6ZdLPysze8xNBXoWIT-20" value="&lt;span&gt;Databases/Internal applications&lt;/span&gt;" style="rounded=0;whiteSpace=wrap;html=1;strokeColor=#000099;strokeWidth=3;fontStyle=1" parent="1" vertex="1">
          <mxGeometry x="775" y="562" width="115" height="45" as="geometry" />
        </mxCell>
        <mxCell id="5o6ZdLPysze8xNBXoWIT-22" value="&lt;span&gt;Private Subnet&lt;/span&gt;" style="text;html=1;align=center;verticalAlign=middle;whiteSpace=wrap;rounded=0;fontStyle=1" parent="1" vertex="1">
          <mxGeometry x="790" y="625" width="90" height="30" as="geometry" />
        </mxCell>
        <mxCell id="1U3jbI4TA8fQ8glaw9Jv-1" value="" style="rounded=0;whiteSpace=wrap;html=1;strokeColor=#000099;strokeWidth=2;fontStyle=1" parent="1" vertex="1">
          <mxGeometry x="200" y="1040" width="280" height="160" as="geometry" />
        </mxCell>
        <mxCell id="1U3jbI4TA8fQ8glaw9Jv-2" value="XYZ.com" style="rounded=1;whiteSpace=wrap;html=1;strokeColor=#006600;strokeWidth=2;fontStyle=1" parent="1" vertex="1">
          <mxGeometry x="245.5" y="1090" width="120" height="60" as="geometry" />
        </mxCell>
        <mxCell id="1U3jbI4TA8fQ8glaw9Jv-64" style="edgeStyle=orthogonalEdgeStyle;rounded=0;orthogonalLoop=1;jettySize=auto;html=1;" parent="1" source="1U3jbI4TA8fQ8glaw9Jv-3" target="1U3jbI4TA8fQ8glaw9Jv-2" edge="1">
          <mxGeometry relative="1" as="geometry" />
        </mxCell>
        <mxCell id="1U3jbI4TA8fQ8glaw9Jv-3" value="Actor" style="shape=umlActor;verticalLabelPosition=bottom;verticalAlign=top;html=1;outlineConnect=0;fontStyle=1" parent="1" vertex="1">
          <mxGeometry x="660" y="1090" width="30" height="60" as="geometry" />
        </mxCell>
        <mxCell id="1U3jbI4TA8fQ8glaw9Jv-5" value="" style="ellipse;whiteSpace=wrap;html=1;fontStyle=1" parent="1" vertex="1">
          <mxGeometry x="350" y="1105" width="30" height="30" as="geometry" />
        </mxCell>
        <mxCell id="1U3jbI4TA8fQ8glaw9Jv-6" value="" style="ellipse;whiteSpace=wrap;html=1;fontStyle=1" parent="1" vertex="1">
          <mxGeometry x="460" y="1100" width="40" height="40" as="geometry" />
        </mxCell>
        <mxCell id="1U3jbI4TA8fQ8glaw9Jv-8" value="" style="rounded=1;whiteSpace=wrap;html=1;fontStyle=1" parent="1" vertex="1">
          <mxGeometry x="355" y="1105" width="145" height="30" as="geometry" />
        </mxCell>
        <mxCell id="1U3jbI4TA8fQ8glaw9Jv-9" value="10000" style="text;html=1;align=center;verticalAlign=middle;whiteSpace=wrap;rounded=0;fontStyle=1" parent="1" vertex="1">
          <mxGeometry x="480" y="1070" width="60" height="30" as="geometry" />
        </mxCell>
        <mxCell id="1U3jbI4TA8fQ8glaw9Jv-63" value="10000" style="text;html=1;align=center;verticalAlign=middle;whiteSpace=wrap;rounded=0;fontStyle=1" parent="1" vertex="1">
          <mxGeometry x="350" y="1070" width="60" height="30" as="geometry" />
        </mxCell>
        <mxCell id="1U3jbI4TA8fQ8glaw9Jv-65" value="&lt;b&gt;abc.com&lt;/b&gt;" style="rounded=1;whiteSpace=wrap;html=1;" parent="1" vertex="1">
          <mxGeometry x="370" y="1150" width="90" height="40" as="geometry" />
        </mxCell>
        <mxCell id="1U3jbI4TA8fQ8glaw9Jv-66" value="" style="ellipse;whiteSpace=wrap;html=1;" parent="1" vertex="1">
          <mxGeometry x="450" y="1160" width="20" height="25" as="geometry" />
        </mxCell>
        <mxCell id="1U3jbI4TA8fQ8glaw9Jv-67" value="110000" style="text;html=1;align=center;verticalAlign=middle;whiteSpace=wrap;rounded=0;" parent="1" vertex="1">
          <mxGeometry x="410" y="1130" width="60" height="30" as="geometry" />
        </mxCell>
        <mxCell id="1U3jbI4TA8fQ8glaw9Jv-68" value="" style="ellipse;whiteSpace=wrap;html=1;" parent="1" vertex="1">
          <mxGeometry x="230" y="1020" width="40" height="40" as="geometry" />
        </mxCell>
        <mxCell id="1U3jbI4TA8fQ8glaw9Jv-70" style="edgeStyle=orthogonalEdgeStyle;rounded=0;orthogonalLoop=1;jettySize=auto;html=1;" parent="1" source="1U3jbI4TA8fQ8glaw9Jv-69" target="1U3jbI4TA8fQ8glaw9Jv-68" edge="1">
          <mxGeometry relative="1" as="geometry" />
        </mxCell>
        <mxCell id="1U3jbI4TA8fQ8glaw9Jv-69" value="Actor" style="shape=umlActor;verticalLabelPosition=bottom;verticalAlign=top;html=1;outlineConnect=0;" parent="1" vertex="1">
          <mxGeometry x="335.5" y="900" width="30" height="60" as="geometry" />
        </mxCell>
        <mxCell id="1U3jbI4TA8fQ8glaw9Jv-71" value="&lt;b&gt;22 = connecting to the server or login into the server&lt;/b&gt;" style="text;html=1;align=center;verticalAlign=middle;whiteSpace=wrap;rounded=0;" parent="1" vertex="1">
          <mxGeometry x="260" y="1010" width="280" height="30" as="geometry" />
        </mxCell>
        <mxCell id="1U3jbI4TA8fQ8glaw9Jv-72" value="" style="rounded=1;whiteSpace=wrap;html=1;" parent="1" vertex="1">
          <mxGeometry x="280" y="1050" width="80" height="30" as="geometry" />
        </mxCell>
        <mxCell id="oWEqypCT3MJGddIyEw9i-1" value="&lt;b&gt;Inbound rules&lt;/b&gt;" style="text;html=1;align=center;verticalAlign=middle;resizable=0;points=[];autosize=1;strokeColor=none;fillColor=none;" vertex="1" parent="1">
          <mxGeometry x="660" y="958" width="100" height="30" as="geometry" />
        </mxCell>
        <mxCell id="oWEqypCT3MJGddIyEw9i-2" value="&lt;b&gt;Outbound rules&lt;/b&gt;" style="text;html=1;align=center;verticalAlign=middle;resizable=0;points=[];autosize=1;strokeColor=none;fillColor=none;" vertex="1" parent="1">
          <mxGeometry x="655" y="990" width="110" height="30" as="geometry" />
        </mxCell>
      </root>
    </mxGraphModel>
  </diagram>
</mxfile>
